<?xml version="1.0" encoding="UTF-8"?><svg xmlns="http://www.w3.org/2000/svg" xmlns:xlink="http://www.w3.org/1999/xlink" fill-opacity="1" color-rendering="auto" color-interpolation="auto" text-rendering="auto" stroke="black" stroke-linecap="square" width="988" stroke-miterlimit="10" shape-rendering="auto" stroke-opacity="1" fill="black" stroke-dasharray="none" font-weight="normal" stroke-width="1" height="538" font-family="'Dialog'" font-style="normal" stroke-linejoin="miter" font-size="12px" stroke-dashoffset="0" image-rendering="auto">
  <!--Generated by ySVG 2.5-->
  <defs id="genericDefs"/>
  <g>
    <defs id="defs1">
      <clipPath clipPathUnits="userSpaceOnUse" id="clipPath1">
        <path d="M0 0 L988 0 L988 538 L0 538 L0 0 Z"/>
      </clipPath>
      <clipPath clipPathUnits="userSpaceOnUse" id="clipPath2">
        <path d="M131 82 L1119 82 L1119 620 L131 620 L131 82 Z"/>
      </clipPath>
    </defs>
    <g fill="rgb(221,221,221)" text-rendering="geometricPrecision" shape-rendering="geometricPrecision" transform="matrix(1,0,0,1,-131,-82)" stroke="rgb(221,221,221)">
      <rect x="701.5" y="126.1687" clip-path="url(#clipPath2)" width="123" rx="4" ry="4" height="200.2456" stroke="none"/>
    </g>
    <g stroke-linecap="butt" transform="matrix(1,0,0,1,-131,-82)" fill="rgb(51,51,51)" text-rendering="geometricPrecision" shape-rendering="geometricPrecision" stroke="rgb(51,51,51)" stroke-width="2" stroke-miterlimit="1.45">
      <rect x="701.5" y="126.1687" clip-path="url(#clipPath2)" fill="none" width="123" rx="4" ry="4" height="200.2456"/>
    </g>
    <g text-rendering="geometricPrecision" stroke-miterlimit="1.45" shape-rendering="geometricPrecision" font-family="sans-serif" transform="matrix(1,0,0,1,-131,-82)" stroke-linecap="butt">
      <text x="688.584" xml:space="preserve" y="110.741" clip-path="url(#clipPath2)" stroke="none">e.g.: RCP Client on Mobile</text>
    </g>
    <g fill="white" text-rendering="geometricPrecision" shape-rendering="geometricPrecision" transform="matrix(1,0,0,1,-131,-82)" stroke="white">
      <rect x="709" y="136.0992" clip-path="url(#clipPath2)" width="107" rx="4" ry="4" height="166.2456" stroke="none"/>
    </g>
    <g stroke-linecap="butt" transform="matrix(1,0,0,1,-131,-82)" fill="rgb(51,51,51)" text-rendering="geometricPrecision" shape-rendering="geometricPrecision" stroke="rgb(51,51,51)" stroke-width="2" stroke-miterlimit="1.45">
      <rect x="709" y="136.0992" clip-path="url(#clipPath2)" fill="none" width="107" rx="4" ry="4" height="166.2456"/>
    </g>
    <g fill="white" text-rendering="geometricPrecision" shape-rendering="geometricPrecision" transform="matrix(1,0,0,1,-131,-82)" stroke="white">
      <rect x="701.5" y="411.3374" clip-path="url(#clipPath2)" width="194" rx="4" ry="4" height="118.2456" stroke="none"/>
    </g>
    <g stroke-linecap="butt" transform="matrix(1,0,0,1,-131,-82)" fill="rgb(51,51,51)" text-rendering="geometricPrecision" shape-rendering="geometricPrecision" stroke="rgb(51,51,51)" stroke-width="2" stroke-miterlimit="1.45">
      <rect x="701.5" y="411.3374" clip-path="url(#clipPath2)" fill="none" width="194" rx="4" ry="4" height="118.2456"/>
    </g>
    <g text-rendering="geometricPrecision" stroke-miterlimit="1.45" shape-rendering="geometricPrecision" font-family="sans-serif" transform="matrix(1,0,0,1,-131,-82)" stroke-linecap="butt">
      <text x="722.5303" xml:space="preserve" y="397.741" clip-path="url(#clipPath2)" stroke="none">e.g.: RCP Client on Laptop</text>
    </g>
    <g fill="white" text-rendering="geometricPrecision" shape-rendering="geometricPrecision" transform="matrix(1,0,0,1,-131,-82)" stroke="white">
      <rect x="146.5" y="305.7841" clip-path="url(#clipPath2)" width="367" rx="59.1228" ry="59.1228" height="118.2456" stroke="none"/>
    </g>
    <g stroke-linecap="butt" transform="matrix(1,0,0,1,-131,-82)" fill="rgb(51,51,51)" text-rendering="geometricPrecision" shape-rendering="geometricPrecision" stroke="rgb(51,51,51)" stroke-width="2" stroke-miterlimit="1.45">
      <rect x="146.5" y="305.7841" clip-path="url(#clipPath2)" fill="none" width="367" rx="59.1228" ry="59.1228" height="118.2456"/>
    </g>
    <g font-size="14px" stroke-linecap="butt" transform="matrix(1,0,0,1,-131,-82)" text-rendering="geometricPrecision" font-family="sans-serif" shape-rendering="geometricPrecision" stroke-miterlimit="1.45">
      <text x="273.73" xml:space="preserve" y="345.4655" clip-path="url(#clipPath2)" stroke="none">Host Application</text>
      <text x="189.8564" xml:space="preserve" y="361.9538" clip-path="url(#clipPath2)" stroke="none">C++, C#, Java, vvvv, openFrameworks, ...</text>
      <text x="327.7852" xml:space="preserve" y="378.4421" clip-path="url(#clipPath2)" stroke="none"> </text>
      <text x="196.8735" xml:space="preserve" y="394.9304" clip-path="url(#clipPath2)" stroke="none">(uses RCP Library to expose Parameter)</text>
    </g>
    <g fill="silver" text-rendering="geometricPrecision" shape-rendering="geometricPrecision" transform="matrix(1,0,0,1,-131,-82)" stroke="silver">
      <rect x="720.5" width="84" height="17" y="175.9305" clip-path="url(#clipPath2)" stroke="none"/>
    </g>
    <g text-rendering="geometricPrecision" stroke-miterlimit="1.45" shape-rendering="geometricPrecision" transform="matrix(1,0,0,1,-131,-82)" stroke-linecap="butt">
      <rect fill="none" x="720.5" width="84" height="17" y="175.9305" clip-path="url(#clipPath2)"/>
    </g>
    <g fill="silver" text-rendering="geometricPrecision" shape-rendering="geometricPrecision" transform="matrix(1,0,0,1,-131,-82)" stroke="silver">
      <rect x="720.5" width="17" height="17" y="147.861" clip-path="url(#clipPath2)" stroke="none"/>
    </g>
    <g text-rendering="geometricPrecision" stroke-miterlimit="1.45" shape-rendering="geometricPrecision" transform="matrix(1,0,0,1,-131,-82)" stroke-linecap="butt">
      <rect fill="none" x="720.5" width="17" height="17" y="147.861" clip-path="url(#clipPath2)"/>
      <text x="743.5" font-size="11px" y="160.5182" clip-path="url(#clipPath2)" font-family="sans-serif" stroke="none" xml:space="preserve">Checkbox</text>
    </g>
    <g fill="rgb(153,153,153)" text-rendering="geometricPrecision" shape-rendering="geometricPrecision" transform="matrix(1,0,0,1,-131,-82)" stroke="rgb(153,153,153)">
      <rect x="746" width="5" height="17" y="175.9305" clip-path="url(#clipPath2)" stroke="none"/>
    </g>
    <g text-rendering="geometricPrecision" stroke-miterlimit="1.45" shape-rendering="geometricPrecision" transform="matrix(1,0,0,1,-131,-82)" stroke-linecap="butt">
      <rect fill="none" x="746" width="5" height="17" y="175.9305" clip-path="url(#clipPath2)"/>
    </g>
    <g fill="silver" text-rendering="geometricPrecision" shape-rendering="geometricPrecision" transform="matrix(1,0,0,1,-131,-82)" stroke="silver">
      <rect x="722" width="45" height="17" y="201.861" clip-path="url(#clipPath2)" stroke="none"/>
    </g>
    <g text-rendering="geometricPrecision" stroke-miterlimit="1.45" shape-rendering="geometricPrecision" transform="matrix(1,0,0,1,-131,-82)" stroke-linecap="butt">
      <rect fill="none" x="722" width="45" height="17" y="201.861" clip-path="url(#clipPath2)"/>
      <text x="725.6826" font-size="9px" y="213.7624" clip-path="url(#clipPath2)" font-family="sans-serif" stroke="none" xml:space="preserve">button 1</text>
    </g>
    <g fill="silver" text-rendering="geometricPrecision" shape-rendering="geometricPrecision" transform="matrix(1,0,0,1,-131,-82)" stroke="silver">
      <rect x="722" width="45" height="17" y="227.722" clip-path="url(#clipPath2)" stroke="none"/>
    </g>
    <g text-rendering="geometricPrecision" stroke-miterlimit="1.45" shape-rendering="geometricPrecision" transform="matrix(1,0,0,1,-131,-82)" stroke-linecap="butt">
      <rect fill="none" x="722" width="45" height="17" y="227.722" clip-path="url(#clipPath2)"/>
      <text x="725.6826" font-size="9px" y="239.6234" clip-path="url(#clipPath2)" font-family="sans-serif" stroke="none" xml:space="preserve">button 2</text>
    </g>
    <g fill="silver" text-rendering="geometricPrecision" shape-rendering="geometricPrecision" transform="matrix(1,0,0,1,-131,-82)" stroke="silver">
      <rect x="715.5" width="84" height="17" y="461.0992" clip-path="url(#clipPath2)" stroke="none"/>
    </g>
    <g text-rendering="geometricPrecision" stroke-miterlimit="1.45" shape-rendering="geometricPrecision" transform="matrix(1,0,0,1,-131,-82)" stroke-linecap="butt">
      <rect fill="none" x="715.5" width="84" height="17" y="461.0992" clip-path="url(#clipPath2)"/>
    </g>
    <g fill="silver" text-rendering="geometricPrecision" shape-rendering="geometricPrecision" transform="matrix(1,0,0,1,-131,-82)" stroke="silver">
      <rect x="715.5" width="17" height="17" y="433.0297" clip-path="url(#clipPath2)" stroke="none"/>
    </g>
    <g text-rendering="geometricPrecision" stroke-miterlimit="1.45" shape-rendering="geometricPrecision" transform="matrix(1,0,0,1,-131,-82)" stroke-linecap="butt">
      <rect fill="none" x="715.5" width="17" height="17" y="433.0297" clip-path="url(#clipPath2)"/>
      <text x="738.5" font-size="11px" y="445.687" clip-path="url(#clipPath2)" font-family="sans-serif" stroke="none" xml:space="preserve">Checkbox</text>
    </g>
    <g fill="gray" text-rendering="geometricPrecision" shape-rendering="geometricPrecision" transform="matrix(1,0,0,1,-131,-82)" stroke="gray">
      <rect x="741" width="5" height="17" y="461.0992" clip-path="url(#clipPath2)" stroke="none"/>
    </g>
    <g text-rendering="geometricPrecision" stroke-miterlimit="1.45" shape-rendering="geometricPrecision" transform="matrix(1,0,0,1,-131,-82)" stroke-linecap="butt">
      <rect fill="none" x="741" width="5" height="17" y="461.0992" clip-path="url(#clipPath2)"/>
    </g>
    <g fill="silver" text-rendering="geometricPrecision" shape-rendering="geometricPrecision" transform="matrix(1,0,0,1,-131,-82)" stroke="silver">
      <rect x="717" width="45" height="17" y="487.0297" clip-path="url(#clipPath2)" stroke="none"/>
    </g>
    <g text-rendering="geometricPrecision" stroke-miterlimit="1.45" shape-rendering="geometricPrecision" transform="matrix(1,0,0,1,-131,-82)" stroke-linecap="butt">
      <rect fill="none" x="717" width="45" height="17" y="487.0297" clip-path="url(#clipPath2)"/>
      <text x="720.6826" font-size="9px" y="498.9311" clip-path="url(#clipPath2)" font-family="sans-serif" stroke="none" xml:space="preserve">button 1</text>
    </g>
    <g fill="silver" text-rendering="geometricPrecision" shape-rendering="geometricPrecision" transform="matrix(1,0,0,1,-131,-82)" stroke="silver">
      <rect x="776" width="45" height="17" y="487.0297" clip-path="url(#clipPath2)" stroke="none"/>
    </g>
    <g text-rendering="geometricPrecision" stroke-miterlimit="1.45" shape-rendering="geometricPrecision" transform="matrix(1,0,0,1,-131,-82)" stroke-linecap="butt">
      <rect fill="none" x="776" width="45" height="17" y="487.0297" clip-path="url(#clipPath2)"/>
      <text x="779.6826" font-size="9px" y="498.9311" clip-path="url(#clipPath2)" font-family="sans-serif" stroke="none" xml:space="preserve">button 2</text>
    </g>
    <g fill="rgb(221,221,221)" text-rendering="geometricPrecision" shape-rendering="geometricPrecision" transform="matrix(1,0,0,1,-131,-82)" stroke="rgb(221,221,221)">
      <path d="M701.5 530 L895.0001 530 L916.5 604.2456 L722.9999 604.2456 Z" fill-rule="evenodd" clip-path="url(#clipPath2)" stroke="none"/>
    </g>
    <g stroke-linecap="butt" transform="matrix(1,0,0,1,-131,-82)" fill="rgb(51,51,51)" text-rendering="geometricPrecision" shape-rendering="geometricPrecision" stroke="rgb(51,51,51)" stroke-width="2" stroke-miterlimit="1.45">
      <path fill="none" d="M701.5 530 L895.0001 530 L916.5 604.2456 L722.9999 604.2456 Z" fill-rule="evenodd" clip-path="url(#clipPath2)"/>
      <text x="954.7412" y="240.54" clip-path="url(#clipPath2)" font-family="sans-serif" stroke="none" stroke-width="1" xml:space="preserve">RCP Client shows GUI</text>
      <text x="952.3301" y="254.6728" clip-path="url(#clipPath2)" font-family="sans-serif" stroke="none" stroke-width="1" xml:space="preserve">to control Parameters </text>
      <text x="936.249" y="268.8056" clip-path="url(#clipPath2)" font-family="sans-serif" stroke="none" stroke-width="1" xml:space="preserve">on Host Application via RCP</text>
      <path fill="none" d="M439.5828 299.2251 L447.3712 288.1235 L460.324 271.9953 L473.8463 257.3897 L487.9384 244.3066 L502.6001 232.746 L517.8315 222.7079 L533.6325 214.1923 L550.0032 207.1992 L566.9435 201.7286 L584.4536 197.7805 L602.5332 195.3549 L621.1826 194.4519 L640.4016 195.0713 L660.1902 197.2133 L680.5486 200.8777 L693.7115 204.1401" stroke-width="1" clip-path="url(#clipPath2)" stroke="black"/>
      <path fill="black" d="M434.9882 305.7741 L445.9732 298.8221 L440.1571 298.4064 L437.7869 293.0789 Z" stroke-width="1" clip-path="url(#clipPath2)" stroke="none"/>
      <path fill="black" d="M701.4766 206.0647 L691.0318 198.3247 L692.7408 203.8996 L688.6262 208.031 Z" stroke-width="1" clip-path="url(#clipPath2)" stroke="none"/>
    </g>
    <g stroke-linecap="butt" transform="matrix(1,0,0,1,-131,-82)" fill-opacity="0.4706" fill="rgb(255,255,255)" text-rendering="geometricPrecision" shape-rendering="geometricPrecision" stroke="rgb(255,255,255)" stroke-opacity="0.4706" stroke-miterlimit="1.45">
      <rect x="537.1945" width="112.75" height="18.1328" y="169.7812" clip-path="url(#clipPath2)" stroke="none"/>
    </g>
    <g text-rendering="geometricPrecision" stroke-miterlimit="1.45" shape-rendering="geometricPrecision" font-family="sans-serif" transform="matrix(1,0,0,1,-131,-82)" stroke-linecap="butt">
      <text x="539.1945" xml:space="preserve" y="183.3827" clip-path="url(#clipPath2)" stroke="none">RCP via Websocket</text>
      <path fill="none" d="M439.7141 429.0386 L454.5106 440.9076 L475.7845 455.9193 L497.2953 469.0678 L519.0432 480.3533 L541.028 489.7758 L563.2497 497.3352 L585.7084 503.0315 L608.4041 506.8647 L631.3367 508.8349 L654.5063 508.942 L677.9128 507.1861 L693.6022 504.7845" clip-path="url(#clipPath2)"/>
      <path d="M433.4737 424.0329 L439.7057 435.4417 L440.4941 429.6643 L445.9629 427.6412 Z" clip-path="url(#clipPath2)" stroke="none"/>
      <path d="M701.5101 503.5741 L688.8918 500.4473 L692.6138 504.9359 L690.4048 510.3322 Z" clip-path="url(#clipPath2)" stroke="none"/>
      <text x="575.2144" xml:space="preserve" y="496.195" clip-path="url(#clipPath2)" stroke="none">RCP via TCP</text>
      <path fill="none" d="M1007 277.2059 L982 290.2527 L969.9688 294.8426 L958.25 298.1434 L946.8438 300.1551 L935.75 300.8777 L924.9688 300.3113 L914.5 298.4559 L904.3438 295.3113 L894.5 290.8777 L884.9688 285.1551 L875.75 278.1434 L866.8438 269.8426 L858.25 260.2527 L846.61 243.7441" clip-path="url(#clipPath2)" stroke="gray"/>
      <path fill="gray" d="M842 237.2059 L844.8286 249.8944 L847.1862 244.5613 L853.0013 244.1319 Z" clip-path="url(#clipPath2)" stroke="none"/>
      <path fill="none" d="M1025 278.2059 L1028.8984 296.3934 L1031.3438 313.7059 L1032.3359 330.1434 L1031.875 345.7059 L1029.9609 360.3934 L1026.5938 374.2059 L1021.7734 387.1434 L1015.5 399.2059 L1007.7734 410.3934 L998.5938 420.7059 L987.9609 430.1434 L975.875 438.7059 L962.3359 446.3934 L947.3438 453.2059 L930.8984 459.1434 L920.698 462.0285" clip-path="url(#clipPath2)" stroke="gray"/>
      <path fill="gray" d="M913 464.2059 L925.9078 465.7511 L921.6603 461.7564 L923.1862 456.1286 Z" clip-path="url(#clipPath2)" stroke="none"/>
    </g>
  </g>
</svg>
